<?xml version="1.0" encoding="utf-8"?>
<!-- Generator: Adobe Illustrator 23.0.0, SVG Export Plug-In . SVG Version: 6.00 Build 0)  -->
<svg version="1.1" xmlns="http://www.w3.org/2000/svg" xmlns:xlink="http://www.w3.org/1999/xlink" x="0px" y="0px"
	 viewBox="0 0 319.3 319.3" style="enable-background:new 0 0 319.3 319.3;" xml:space="preserve">
<style type="text/css">
	.st0{display:none;}
	.st1{display:inline;}
	.st2{fill:#FFFFFF;}
</style>
<g id="Capa_2" class="st0">
	<rect x="-22" y="-7.1" class="st1" width="375" height="334"/>
</g>
<g id="Capa_1">
	<g>
		<path class="st2" d="M38.7,152.9c-1.6,0.8-5.3,1.7-10.1,1.7C15,154.6,8,146.2,8,135.2c0-13.2,9.6-20.5,21.5-20.5
			c4.6,0,8.1,0.9,9.7,1.7l-1.8,6.9c-1.8-0.7-4.3-1.4-7.5-1.4c-7.1,0-12.5,4.2-12.5,12.8c0,7.7,4.7,12.6,12.6,12.6
			c2.7,0,5.7-0.6,7.4-1.3L38.7,152.9z"/>
		<path class="st2" d="M54.3,144.1l-2.8,9.9h-9.2l12-38.7H66L78.2,154h-9.6l-3-9.9H54.3z M64.3,137.5l-2.5-8.2
			c-0.7-2.3-1.4-5.2-2-7.5h-0.1c-0.6,2.3-1.2,5.2-1.8,7.5l-2.3,8.2H64.3z"/>
		<path class="st2" d="M118,134.3c0,12.7-7.8,20.4-19.3,20.4c-11.7,0-18.5-8.7-18.5-19.7c0-11.6,7.5-20.3,19.1-20.3
			C111.4,114.7,118,123.6,118,134.3z M89.6,134.8c0,7.6,3.6,12.9,9.6,12.9c6,0,9.5-5.6,9.5-13.1c0-6.9-3.4-12.9-9.5-12.9
			C93.1,121.6,89.6,127.3,89.6,134.8z"/>
		<path class="st2" d="M124.1,145c2.4,1.2,6.1,2.4,9.9,2.4c4.1,0,6.2-1.7,6.2-4.2c0-2.4-1.9-3.8-6.6-5.5
			c-6.5-2.2-10.8-5.8-10.8-11.4c0-6.6,5.6-11.6,14.9-11.6c4.4,0,7.7,0.9,10,2l-2,7.1c-1.6-0.7-4.4-1.8-8.2-1.8
			c-3.9,0-5.7,1.7-5.7,3.7c0,2.5,2.2,3.6,7.3,5.5c6.9,2.5,10.2,6.1,10.2,11.5c0,6.5-5.1,12-15.9,12c-4.5,0-8.9-1.1-11.1-2.4
			L124.1,145z"/>
		<path class="st2" d="M167.1,154v-38.7h10.4l8.2,14.2c2.3,4.1,4.7,8.9,6.4,13.3h0.2c-0.6-5.1-0.8-10.3-0.8-16.1v-11.3h8.2V154h-9.3
			l-8.4-14.9c-2.3-4.1-4.9-9.1-6.8-13.7l-0.2,0.1c0.2,5.1,0.3,10.6,0.3,16.9V154H167.1z"/>
		<path class="st2" d="M230.8,137.6h-14.5v9.2h16.2v7.2h-25.1v-38.7h24.3v7.2h-15.3v8h14.5V137.6z"/>
		<path class="st2" d="M245.3,154l-9.3-38.7h9.5l3,16c0.9,4.6,1.7,9.6,2.3,13.5h0.1c0.6-4.2,1.6-8.8,2.6-13.6l3.3-15.8h9.5l3.2,16.3
			c0.9,4.5,1.5,8.7,2.1,13h0.1c0.6-4.3,1.5-8.8,2.3-13.4l3.2-15.8h9L276,154h-9.6l-3.3-16.6c-0.8-3.9-1.4-7.5-1.9-11.9H261
			c-0.7,4.4-1.3,8-2.3,11.9L255,154H245.3z"/>
		<path class="st2" d="M290.6,145c2.4,1.2,6.1,2.4,9.9,2.4c4.1,0,6.2-1.7,6.2-4.2c0-2.4-1.9-3.8-6.6-5.5
			c-6.5-2.2-10.8-5.8-10.8-11.4c0-6.6,5.6-11.6,14.9-11.6c4.4,0,7.7,0.9,10,2l-2,7.1c-1.6-0.7-4.4-1.8-8.2-1.8
			c-3.9,0-5.7,1.7-5.7,3.7c0,2.5,2.2,3.6,7.3,5.5c6.9,2.5,10.2,6.1,10.2,11.5c0,6.5-5.1,12-15.9,12c-4.5,0-8.9-1.1-11.1-2.4
			L290.6,145z"/>
	</g>
	<g>
		<path class="st2" d="M178.4,109.8h2.2l5.3,9.2v-9.2h15.9h3.3h7.2l-17.5-6.3C188.7,101.3,181.6,104.2,178.4,109.8z"/>
		<path class="st2" d="M99.3,109.2c8.5,0,15.5,3.7,19.7,9.8c0.9-1.7,2.1-3.3,3.6-4.6l-36.9-13.3l2.5-7.1l43.8,15.8
			c1.8-0.4,3.6-0.6,5.6-0.6c4.5,0,8.6,0.8,12.2,2.4c3-1.5,5.5-4.1,6.7-7.4c2.5-7-1.1-14.8-8.2-17.3L97.4,68.5l2.6-7.1L151,79.8
			c6.9,2.5,14.9-1.3,17.3-8.2c2.5-7-1.1-14.8-8.2-17.3L109.4,36c7.4-14.8,22.7-24.4,39.5-24.4c5.1,0,10.1,0.9,14.9,2.6l61.3,22
			c11.1,4,20,12.1,25,22.8c4.3,9.1,5.3,19.1,3.1,28.7l-46.7-16.8c-6.9-2.5-14.9,1.3-17.3,8.2c-1.2,3.4-1.1,7.1,0.5,10.4
			c1.5,3.3,4.3,5.8,7.7,7l37.2,13.4h2.5H250l1.1,5.8l1.2-5.8h4.7l1-2.9l-57-20.5c-0.7-0.3-1.3-0.8-1.7-1.5c-0.3-0.7-0.4-1.5-0.1-2.3
			c0.5-1.5,2.2-2.3,3.8-1.7l57,20.5l1.8-5c10.2-28.4-4.6-59.9-33-70.1l-61.3-22c-6-2.2-12.2-3.2-18.5-3.2
			c-23.1,0-43.8,14.6-51.6,36.3l-1.8,5l61.1,21.9c1.5,0.6,2.3,2.2,1.8,3.8c-0.5,1.5-2.2,2.3-3.8,1.8L93.5,47.8l-9.7,27.1l61,21.9
			c1.5,0.6,2.3,2.2,1.8,3.8c-0.5,1.5-2.3,2.3-3.8,1.8L81.8,80.4l-9.7,27.1l14.3,5.1C90.1,110.4,94.5,109.2,99.3,109.2z"/>
		<path class="st2" d="M99.1,127.1c-2.7,0-3.7,3.4-3.9,6.2l7.9,2.8c0.1-0.8,0.1-1.4,0.1-1.6C103.1,132,102.2,127.1,99.1,127.1z"/>
		<polygon class="st2" points="194.2,148.5 194.2,148.2 193.4,148.2 193.5,148.5 		"/>
		<polygon class="st2" points="236.3,140 236.3,141.3 236.6,141.3 		"/>
		<path class="st2" d="M75.6,127.5c1.1-4.1,3-7.6,5.6-10.5l-10-3.6L75.6,127.5z"/>
		<path class="st2" d="M187.1,159.5l-3.1-5.6l-3.2-1.2v6.7h-10.6c1.1,0.9,2.4,1.7,3.9,2.2l47,16.9l-2.6,7.1l-47-16.9
			c-6.9-2.5-14.9,1.3-17.3,8.2c-1.2,3.4-1.1,7.1,0.5,10.4c1.5,3.3,4.3,5.8,7.7,7l46.3,16.7c-7.8,13.6-22.3,22.2-38.3,22.2
			c-5.1,0-10.1-0.9-14.9-2.6l-61.3-22c-20.4-7.3-32.2-28.1-28.6-49h-0.9l-3-9.9h-3l-2.8,9.9h-0.9c-3.1,22.9,8.5,45.4,29.1,56v44.1
			l0.1,0.1l-0.1,60.7h37.9l0.6-46.4l0.2,0.1l43.6-30.5c1.4,0.1,2.7,0.2,4.1,0.2c22.2,0,42-13.2,50.6-33.7l2.1-5.1l-57.2-20.5
			c-0.7-0.3-1.3-0.8-1.7-1.5c-0.3-0.7-0.4-1.5-0.1-2.3c0.5-1.5,2.3-2.3,3.8-1.8l57,20.5l9.7-27.1l-35.2-12.6H187.1z M111.9,270
			l-0.5,39.7H94.5l0.1-46.1v-0.6l17.3,6L111.9,270z M122.3,261.3l-27.8-9.7v-28l57.4,16.9L122.3,261.3z"/>
		<polygon class="st2" points="238,147 238,159.5 216.9,159.5 236.6,166.6 240.2,156.5 		"/>
		<path class="st2" d="M115.9,177.6c6.9,2.5,14.9-1.3,17.3-8.2c1.1-3.1,1.1-6.3-0.1-9.4c-4.9,0-10.2-1.2-13.5-3l-3.7-2l0.4-1.8
			c-1.9,1.9-4.1,3.4-6.6,4.6l11.7,4.2c0.7,0.3,1.3,0.8,1.7,1.5c0.3,0.7,0.4,1.5,0.1,2.3c-0.5,1.5-2.3,2.3-3.8,1.8l-20.8-7.5
			c0,0,0,0,0,0c-5.5,0-10.3-1.6-14.1-4.3l1.2,3.7H65.5L115.9,177.6z"/>
	</g>
</g>
</svg>
